<svg xmlns="http://www.w3.org/2000/svg" width="600" height="400" viewBox="0 0 600 400"><rect width="100%" height="100%" fill="#DDDDDD"/><path fill="#999999" d="M131.505 170.355v48.44h-9.04v-48.44zm17.79 48.44h-8.27v-34.37h5.06q1.6 0 2.11 1.51l.53 2.54q.91-1 1.9-1.84.98-.84 2.11-1.44 1.12-.6 2.41-.96 1.29-.35 2.83-.35 3.25 0 5.34 1.76 2.1 1.76 3.13 4.67.81-1.7 2.01-2.93 1.21-1.22 2.65-1.99t3.07-1.14q1.62-.37 3.26-.37 2.85 0 5.06.87 2.21.88 3.72 2.55t2.29 4.09q.79 2.41.79 5.52v21.88h-8.27v-21.88q0-3.28-1.44-4.94t-4.22-1.66q-1.28 0-2.37.44-1.08.44-1.91 1.26-.82.82-1.29 2.06-.46 1.24-.46 2.84v21.88h-8.31v-21.88q0-3.45-1.39-5.02-1.39-1.58-4.07-1.58-1.81 0-3.37.89t-2.9 2.43zm56.12 0h-8.28v-34.37h5.06q1.61 0 2.11 1.51l.54 2.54q.9-1 1.89-1.84t2.11-1.44 2.41-.96q1.29-.35 2.83-.35 3.25 0 5.34 1.76 2.1 1.76 3.14 4.67.8-1.7 2.01-2.93 1.2-1.22 2.64-1.99t3.07-1.14q1.62-.37 3.27-.37 2.84 0 5.05.87 2.21.88 3.72 2.55t2.3 4.09q.78 2.41.78 5.52v21.88h-8.27v-21.88q0-3.28-1.44-4.94t-4.22-1.66q-1.27 0-2.36.44t-1.91 1.26-1.29 2.06-.47 2.84v21.88h-8.31v-21.88q0-3.45-1.39-5.02-1.39-1.58-4.07-1.58-1.81 0-3.37.89-1.55.89-2.89 2.43zm65.99-8.88v-5.79q-3.58.16-6.03.62-2.45.45-3.92 1.15-1.47.71-2.11 1.64-.64.94-.64 2.05 0 2.17 1.29 3.11t3.37.94q2.55 0 4.41-.92 1.85-.92 3.63-2.8m-17.49-18.05-1.47-2.65q5.93-5.43 14.27-5.43 3.02 0 5.39.99 2.38.99 4.02 2.75 1.65 1.76 2.5 4.2.85 2.45.85 5.36v21.71h-3.75q-1.17 0-1.81-.35-.63-.35-1-1.43l-.74-2.47q-1.31 1.17-2.55 2.06-1.23.88-2.57 1.49-1.34.6-2.87.92-1.52.32-3.37.32-2.17 0-4.02-.59-1.84-.59-3.18-1.76t-2.08-2.91q-.73-1.75-.73-4.06 0-1.3.43-2.59.44-1.29 1.43-2.47.99-1.17 2.56-2.21t3.87-1.81q2.29-.77 5.34-1.25 3.05-.49 6.97-.59v-2.01q0-3.45-1.47-5.11-1.48-1.66-4.26-1.66-2.01 0-3.33.47t-2.33 1.06q-1 .59-1.83 1.05-.82.47-1.82.47-.87 0-1.48-.45-.6-.45-.97-1.05m45.9 8.91q1.54 0 2.68-.42t1.89-1.16q.75-.73 1.14-1.77t.39-2.28q0-2.55-1.53-4.04-1.52-1.49-4.57-1.49t-4.57 1.49q-1.53 1.49-1.53 4.04 0 1.2.39 2.24.38 1.04 1.14 1.8.75.75 1.9 1.17 1.16.42 2.67.42m9.34 19.56q0-1-.6-1.64t-1.64-.99-2.43-.52-2.95-.25q-1.55-.08-3.21-.15t-3.24-.27q-1.37.77-2.22 1.81-.86 1.04-.86 2.41 0 .91.45 1.69.46.79 1.45 1.36.98.57 2.56.89 1.57.32 3.85.32 2.31 0 3.99-.35 1.67-.36 2.76-.98t1.59-1.47.5-1.86m-1.64-34.74h9.89v3.08q0 1.48-1.78 1.81l-3.08.57q.7 1.78.7 3.89 0 2.54-1.02 4.6t-2.83 3.5q-1.81 1.45-4.27 2.23-2.46.79-5.31.79-1.01 0-1.94-.1-.94-.1-1.85-.27-1.61.97-1.61 2.18 0 1.04.96 1.52.95.49 2.53.69 1.57.2 3.58.25t4.12.22 4.12.59q2.01.41 3.59 1.32 1.57.9 2.53 2.46.95 1.56.95 4 0 2.28-1.12 4.43-1.12 2.14-3.25 3.82-2.13 1.67-5.23 2.69-3.09 1.02-7.05 1.02-3.88 0-6.76-.75t-4.79-2.01-2.85-2.9-.94-3.41q0-2.42 1.46-4.04 1.45-1.63 4-2.6-1.37-.7-2.18-1.87-.8-1.18-.8-3.09 0-.77.28-1.59.29-.82.84-1.62.55-.81 1.39-1.53t1.98-1.29q-2.61-1.4-4.11-3.75-1.49-2.34-1.49-5.49 0-2.55 1.03-4.61 1.02-2.06 2.84-3.52 1.83-1.45 4.32-2.22 2.5-.77 5.45-.77 2.21 0 4.15.45 1.95.45 3.55 1.32m15.38-1.17h8.31v34.37h-8.31zm9.45-10.02q0 1.07-.44 2.01-.43.94-1.15 1.64-.72.71-1.7 1.13-.97.41-2.07.41-1.08 0-2.03-.41-.95-.42-1.66-1.13-.7-.7-1.12-1.64t-.42-2.01q0-1.1.42-2.07.42-.98 1.12-1.68.71-.7 1.66-1.12t2.03-.42q1.1 0 2.07.42.98.42 1.7 1.12t1.15 1.68q.44.97.44 2.07m14.47 11.53.57 2.71q1.04-1.04 2.19-1.93 1.16-.88 2.45-1.5t2.76-.98q1.48-.35 3.22-.35 2.81 0 4.99.96 2.18.95 3.63 2.68 1.46 1.72 2.22 4.12.75 2.39.75 5.27v21.88h-8.28v-21.88q0-3.14-1.44-4.87t-4.38-1.73q-2.15 0-4.02.98-1.88.97-3.56 2.64v24.86h-8.27v-34.37h5.06q1.61 0 2.11 1.51m37.15 11.72h15.61q0-1.61-.45-3.03t-1.36-2.5q-.9-1.07-2.29-1.69t-3.24-.62q-3.58 0-5.64 2.05-2.06 2.04-2.63 5.79m21.11 4.99h-21.28q.2 2.65.94 4.58.74 1.92 1.94 3.18 1.21 1.25 2.87 1.87t3.67.62 3.46-.47q1.46-.46 2.55-1.03t1.91-1.04 1.59-.47q1.04 0 1.54.77l2.38 3.01q-1.37 1.61-3.08 2.7t-3.57 1.74q-1.86.66-3.79.92-1.92.27-3.73.27-3.59 0-6.67-1.19t-5.36-3.51q-2.28-2.33-3.58-5.77-1.31-3.43-1.31-7.95 0-3.52 1.14-6.62t3.27-5.39q2.12-2.3 5.19-3.64 3.06-1.34 6.92-1.34 3.25 0 5.99 1.04 2.75 1.04 4.73 3.03 1.97 2 3.1 4.89 1.12 2.9 1.12 6.62 0 1.88-.4 2.53-.41.65-1.54.65m6.46 20.64h26.4v5.36h-26.4zm37.96-22.75h14.74v-15.84q0-2.25.3-4.96zm21.94 0h6.1v4.79q0 .67-.44 1.16-.44.48-1.24.48h-4.42v11.83h-7.2v-11.83h-20.44q-.84 0-1.47-.51-.64-.52-.81-1.29l-.87-4.19 22.95-30.65h7.84z"/></svg>