<svg xmlns="http://www.w3.org/2000/svg" width="600" height="400" viewBox="0 0 600 400"><rect width="100%" height="100%" fill="#DDDDDD"/><path fill="#999999" d="M128.9 173.01v44.1h-8.24v-44.1zm16.19 44.1h-7.53v-31.29h4.61q1.46 0 1.92 1.37l.48 2.32q.83-.92 1.73-1.68t1.92-1.31 2.2-.87q1.17-.32 2.57-.32 2.96 0 4.87 1.6 1.9 1.6 2.85 4.25.73-1.55 1.83-2.66 1.1-1.12 2.41-1.82t2.79-1.04q1.48-.33 2.97-.33 2.6 0 4.61.79t3.38 2.32q1.38 1.53 2.09 3.72.72 2.2.72 5.03v19.92h-7.53v-19.92q0-2.99-1.31-4.5-1.32-1.51-3.85-1.51-1.16 0-2.15.4t-1.74 1.15q-.74.74-1.17 1.87t-.43 2.59v19.92h-7.56v-19.92q0-3.14-1.27-4.57-1.26-1.44-3.7-1.44-1.65 0-3.07.81t-2.64 2.21zm51.09 0h-7.53v-31.29h4.6q1.47 0 1.92 1.37l.49 2.32q.83-.92 1.73-1.68t1.92-1.31 2.19-.87q1.18-.32 2.58-.32 2.96 0 4.87 1.6 1.9 1.6 2.85 4.25.73-1.55 1.83-2.66 1.09-1.12 2.41-1.82 1.31-.7 2.79-1.04 1.48-.33 2.97-.33 2.59 0 4.61.79 2.01.79 3.38 2.32t2.09 3.72q.72 2.2.72 5.03v19.92h-7.54v-19.92q0-2.99-1.31-4.5t-3.84-1.51q-1.16 0-2.15.4t-1.74 1.15q-.75.74-1.17 1.87-.43 1.13-.43 2.59v19.92h-7.56v-19.92q0-3.14-1.27-4.57-1.27-1.44-3.71-1.44-1.64 0-3.06.81t-2.64 2.21zm60.09-8.08v-5.28q-3.27.15-5.49.57-2.23.41-3.57 1.05t-1.92 1.49q-.58.86-.58 1.86 0 1.98 1.17 2.84 1.17.85 3.07.85 2.31 0 4.01-.84 1.69-.83 3.31-2.54m-15.93-16.44-1.34-2.41q5.4-4.94 13-4.94 2.74 0 4.91.9 2.16.9 3.66 2.5 1.49 1.6 2.27 3.83.78 2.22.78 4.88v19.76h-3.42q-1.07 0-1.65-.32t-.91-1.3l-.67-2.25q-1.19 1.06-2.32 1.87t-2.35 1.36-2.61.84q-1.38.29-3.06.29-1.98 0-3.66-.54-1.68-.53-2.9-1.6-1.22-1.06-1.89-2.65t-.67-3.69q0-1.19.39-2.36.4-1.18 1.3-2.25.9-1.06 2.33-2.01 1.44-.94 3.53-1.65 2.09-.7 4.86-1.14 2.78-.44 6.35-.53v-1.83q0-3.15-1.35-4.66-1.34-1.51-3.87-1.51-1.83 0-3.03.43-1.21.43-2.12.96-.92.54-1.67.96-.74.43-1.66.43-.79 0-1.34-.41t-.89-.96m41.79 8.11q1.4 0 2.44-.38t1.72-1.05q.69-.67 1.04-1.62.35-.94.35-2.07 0-2.32-1.39-3.68-1.38-1.36-4.16-1.36t-4.16 1.36q-1.39 1.36-1.39 3.68 0 1.1.35 2.04.35.95 1.04 1.63.68.69 1.74 1.07 1.05.38 2.42.38m8.51 17.81q0-.91-.55-1.49t-1.49-.9q-.95-.32-2.22-.47-1.26-.16-2.68-.23-1.42-.08-2.93-.14t-2.94-.24q-1.25.7-2.03 1.64-.78.95-.78 2.2 0 .82.42 1.54.41.72 1.31 1.23.9.52 2.33.81t3.51.29q2.1 0 3.63-.32 1.52-.32 2.51-.88.99-.57 1.45-1.34.46-.78.46-1.7m-1.5-31.63h9v2.81q0 1.34-1.61 1.65l-2.81.52q.64 1.61.64 3.53 0 2.32-.93 4.2-.93 1.87-2.58 3.19-1.64 1.31-3.89 2.02-2.24.72-4.83.72-.92 0-1.77-.09t-1.68-.25q-1.46.89-1.46 1.99 0 .94.87 1.38.87.45 2.3.63t3.26.23q1.83.04 3.76.2 1.92.15 3.75.53t3.26 1.21q1.43.82 2.3 2.24t.87 3.64q0 2.08-1.02 4.03t-2.96 3.48q-1.93 1.52-4.75 2.45-2.83.93-6.43.93-3.53 0-6.16-.69-2.62-.68-4.36-1.83-1.74-1.14-2.59-2.63-.85-1.5-.85-3.11 0-2.2 1.32-3.68 1.33-1.48 3.65-2.36-1.25-.64-1.99-1.71-.73-1.07-.73-2.81 0-.7.26-1.45.26-.74.76-1.48.51-.73 1.27-1.38.76-.66 1.8-1.18-2.38-1.28-3.74-3.41-1.35-2.14-1.35-5.01 0-2.31.93-4.19t2.59-3.2q1.66-1.33 3.93-2.03 2.28-.7 4.96-.7 2.01 0 3.78.41t3.23 1.2m14-1.06h7.57v31.29h-7.57zm8.61-9.12q0 .97-.4 1.83-.4.85-1.05 1.49-.66.64-1.54 1.02-.89.38-1.89.38-.98 0-1.85-.38t-1.51-1.02-1.02-1.49q-.38-.86-.38-1.83 0-1.01.38-1.89.38-.89 1.02-1.53t1.51-1.02 1.85-.38q1 0 1.89.38.88.38 1.54 1.02.65.64 1.05 1.53.4.88.4 1.89m13.17 10.49.52 2.47q.95-.95 2-1.75 1.05-.81 2.22-1.38 1.18-.56 2.52-.88t2.93-.32q2.56 0 4.54.87 1.99.87 3.31 2.44 1.33 1.57 2.02 3.75.68 2.18.68 4.8v19.92h-7.53v-19.92q0-2.86-1.31-4.43-1.32-1.58-4-1.58-1.95 0-3.66.89-1.71.88-3.23 2.41v22.63h-7.54v-31.29H323q1.46 0 1.92 1.37m33.83 10.67h14.21q0-1.46-.41-2.76-.41-1.29-1.24-2.27-.82-.97-2.09-1.54-1.26-.56-2.94-.56-3.26 0-5.14 1.86t-2.39 5.27m19.21 4.55h-19.37q.19 2.41.86 4.16.67 1.76 1.77 2.9 1.09 1.14 2.6 1.71 1.51.56 3.34.56t3.16-.42q1.33-.43 2.32-.95t1.74-.95q.74-.42 1.45-.42.94 0 1.4.7l2.16 2.74q-1.25 1.47-2.8 2.46-1.56.99-3.25 1.58-1.69.6-3.45.84-1.75.25-3.4.25-3.26 0-6.07-1.09-2.8-1.08-4.88-3.2-2.07-2.12-3.26-5.24-1.19-3.13-1.19-7.25 0-3.2 1.04-6.02 1.03-2.82 2.97-4.91t4.73-3.31 6.3-1.22q2.96 0 5.46.94 2.5.95 4.3 2.76 1.8 1.82 2.82 4.46t1.02 6.02q0 1.71-.37 2.3-.36.6-1.4.6m5.89 18.79h24.03v4.88h-24.03zm49.9-9.73h7.93v5.64h-24.4v-5.64h8.93v-25.71q0-1.53.09-3.15l-6.34 5.31q-.55.43-1.08.54-.54.1-1.01.01t-.84-.32q-.36-.23-.55-.5l-2.38-3.27 13.45-11.43h6.2zm45.59-16.41q0 5.76-1.23 10.02-1.24 4.25-3.42 7.03-2.18 2.77-5.15 4.13-2.98 1.36-6.42 1.36-3.45 0-6.39-1.36-2.95-1.36-5.11-4.13-2.17-2.78-3.39-7.03-1.22-4.26-1.22-10.02 0-5.8 1.22-10.04t3.39-7.01q2.16-2.78 5.11-4.13 2.94-1.36 6.39-1.36 3.44 0 6.42 1.36 2.97 1.35 5.15 4.13 2.18 2.77 3.42 7.01 1.23 4.24 1.23 10.04m-7.77 0q0-4.79-.71-7.93-.7-3.14-1.87-5-1.18-1.86-2.7-2.61-1.53-.75-3.17-.75-1.62 0-3.13.75t-2.67 2.61-1.84 5q-.69 3.14-.69 7.93t.69 7.93q.68 3.14 1.84 5t2.67 2.61 3.13.75q1.64 0 3.17-.75 1.52-.75 2.7-2.61 1.17-1.86 1.87-5 .71-3.14.71-7.93"/></svg>